<svg width="44" height="44" viewBox="0 0 44 44" fill="none" xmlns="http://www.w3.org/2000/svg">
<path d="M33 20.1666V40.3333H27.1883C26.8096 39.2598 26.1071 38.3303 25.1779 37.6727C24.2487 37.0152 23.1383 36.6621 22 36.6621C20.8617 36.6621 19.7513 37.0152 18.8221 37.6727C17.8929 38.3303 17.1904 39.2598 16.8117 40.3333H11V20.1666H18.3333C18.8196 20.1666 19.2859 19.9735 19.6297 19.6297C19.9735 19.2858 20.1667 18.8195 20.1667 18.3333C20.1667 17.8471 19.9735 17.3807 19.6297 17.0369C19.2859 16.6931 18.8196 16.5 18.3333 16.5H11V3.66663H16.8117C17.1904 4.7401 17.8929 5.66966 18.8221 6.32718C19.7513 6.98469 20.8617 7.33779 22 7.33779C23.1383 7.33779 24.2487 6.98469 25.1779 6.32718C26.1071 5.66966 26.8096 4.7401 27.1883 3.66663H33V16.5H25.6667C25.1804 16.5 24.7141 16.6931 24.3703 17.0369C24.0265 17.3807 23.8333 17.8471 23.8333 18.3333C23.8333 18.8195 24.0265 19.2858 24.3703 19.6297C24.7141 19.9735 25.1804 20.1666 25.6667 20.1666H33Z" fill="#8828FF"/>
</svg>
