<svg width="54" height="54" viewBox="0 0 54 54" fill="none" xmlns="http://www.w3.org/2000/svg">
<path d="M18.0012 41.6293C18.692 42.0793 19.574 42.2143 20.402 41.9286L26.108 39.9846C26.6871 39.7871 27.3153 39.7871 27.8945 39.9846L33.6005 41.9286C34.4285 42.2121 35.3105 42.0793 36.0012 41.6293V50.3908L27.0012 47.3353L18.0012 50.3908V41.6293ZM26.2745 36.2968L21.635 37.8786C21.1156 38.0554 20.5494 38.0364 20.0431 37.8251C19.5367 37.6138 19.125 37.2247 18.8855 36.7311L16.6242 32.0848C16.4165 31.6555 16.0777 31.3033 15.6567 31.0791L11.1567 28.6941C10.6936 28.4478 10.3311 28.0474 10.1318 27.5623C9.93259 27.0771 9.90911 26.5375 10.0655 26.0368L11.663 20.9226C11.7993 20.486 11.7993 20.0182 11.663 19.5816L10.0655 14.4673C9.9087 13.9661 9.93222 13.4258 10.1319 12.9401C10.3316 12.4544 10.695 12.0538 11.159 11.8078L15.6567 9.42282C16.0773 9.19917 16.4161 8.8478 16.6242 8.41932L18.8855 3.76632C19.1254 3.2731 19.5373 2.88452 20.0436 2.67362C20.5499 2.46272 21.1158 2.44403 21.635 2.62107L26.2745 4.20282C26.7456 4.36362 27.2568 4.36362 27.728 4.20282L32.3675 2.62107C32.8869 2.4442 33.453 2.46321 33.9594 2.67454C34.4657 2.88587 34.8774 3.27494 35.117 3.76857L37.3782 8.41707C37.586 8.84639 37.9248 9.19858 38.3457 9.42282L42.8457 11.8078C43.3088 12.0541 43.6713 12.4544 43.8706 12.9396C44.0698 13.4248 44.0933 13.9644 43.937 14.4651L42.3395 19.5793C42.2032 20.0159 42.2032 20.4837 42.3395 20.9203L43.937 26.0346C44.0937 26.5358 44.0702 27.0761 43.8705 27.5618C43.6708 28.0475 43.3075 28.4481 42.8435 28.6941L38.3457 31.0791C37.9251 31.3027 37.5864 31.6541 37.3782 32.0826L35.117 36.7333C34.877 37.2265 34.4652 37.6151 33.9588 37.826C33.4525 38.0369 32.8866 38.0556 32.3675 37.8786L27.728 36.2968C27.2568 36.136 26.7456 36.136 26.2745 36.2968ZM27.0012 13.4998C26.4045 13.4998 25.8322 13.7369 25.4102 14.1588C24.9883 14.5808 24.7512 15.1531 24.7512 15.7498V24.7498C24.7512 25.3466 24.9883 25.9188 25.4102 26.3408C25.8322 26.7628 26.4045 26.9998 27.0012 26.9998C27.5979 26.9998 28.1702 26.7628 28.5922 26.3408C29.0142 25.9188 29.2512 25.3466 29.2512 24.7498V15.7498C29.2512 15.1531 29.0142 14.5808 28.5922 14.1588C28.1702 13.7369 27.5979 13.4998 27.0012 13.4998Z" fill="#8828FF"/>
</svg>
