<svg width="54" height="54" viewBox="0 0 54 54" fill="none" xmlns="http://www.w3.org/2000/svg">
<path d="M29.1654 11.3623C30.0722 10.1202 31.224 9.07716 32.5497 8.29767C33.8755 7.51819 35.3469 7.01879 36.8732 6.83033C38.3995 6.64188 39.9483 6.76836 41.4238 7.20198C42.8993 7.63559 44.2702 8.36713 45.4519 9.35139C46.6336 10.3357 47.6009 11.5518 48.2941 12.9246C48.9873 14.2974 49.3917 15.7977 49.4823 17.333C49.5729 18.8682 49.3477 20.4057 48.8207 21.8505C48.2938 23.2953 47.4762 24.6167 46.4184 25.7331C45.2787 21.9044 43.0329 18.4979 39.9633 15.9415C36.8937 13.3851 33.1371 11.7928 29.1654 11.3646V11.3623ZM7.58341 25.7376C6.52567 24.6212 5.70806 23.2998 5.18108 21.855C4.65411 20.4102 4.42895 18.8727 4.51953 17.3375C4.61011 15.8022 5.01449 14.3019 5.70771 12.9291C6.40093 11.5563 7.36825 10.3402 8.54992 9.35589C9.7316 8.37163 11.1025 7.64009 12.578 7.20648C14.0535 6.77286 15.6023 6.64638 17.1286 6.83483C18.6549 7.02329 20.1264 7.52269 21.4521 8.30217C22.7778 9.08166 23.9296 10.1247 24.8364 11.3668C20.8647 11.795 17.1081 13.3873 14.0385 15.9437C10.9689 18.5001 8.72315 21.9066 7.58341 25.7353V25.7376ZM27.0009 47.2498C24.9326 47.2498 22.8845 46.8424 20.9736 46.0509C19.0628 45.2594 17.3265 44.0993 15.864 42.6368C14.4015 41.1742 13.2413 39.438 12.4498 37.5271C11.6583 35.6162 11.2509 33.5681 11.2509 31.4998C11.2509 29.4315 11.6583 27.3834 12.4498 25.4726C13.2413 23.5617 14.4015 21.8254 15.864 20.3629C17.3265 18.9004 19.0628 17.7402 20.9736 16.9487C22.8845 16.1572 24.9326 15.7498 27.0009 15.7498C31.1781 15.7498 35.1841 17.4092 38.1378 20.3629C41.0915 23.3166 42.7509 27.3227 42.7509 31.4998C42.7509 35.677 41.0915 39.6831 38.1378 42.6368C35.1841 45.5905 31.1781 47.2498 27.0009 47.2498ZM29.2509 29.2498V20.2498C29.2509 19.6531 29.0139 19.0808 28.5919 18.6588C28.1699 18.2369 27.5977 17.9998 27.0009 17.9998C26.4042 17.9998 25.8319 18.2369 25.4099 18.6588C24.988 19.0808 24.7509 19.6531 24.7509 20.2498V31.4998C24.7509 32.0966 24.988 32.6689 25.4099 33.0908C25.8319 33.5128 26.4042 33.7498 27.0009 33.7498H33.7509C34.3477 33.7498 34.9199 33.5128 35.3419 33.0908C35.7639 32.6689 36.0009 32.0966 36.0009 31.4998C36.0009 30.9031 35.7639 30.3308 35.3419 29.9088C34.9199 29.4869 34.3477 29.2498 33.7509 29.2498H29.2509Z" fill="#8828FF"/>
</svg>
