<svg width="44" height="44" viewBox="0 0 44 44" fill="none" xmlns="http://www.w3.org/2000/svg">
<path d="M4.40039 11.0001C4.40039 9.83314 4.86396 8.71399 5.68912 7.88883C6.51428 7.06367 7.63344 6.6001 8.80039 6.6001H24.2004C25.3673 6.6001 26.4865 7.06367 27.3117 7.88883C28.1368 8.71399 28.6004 9.83314 28.6004 11.0001V19.8001C28.6004 20.967 28.1368 22.0862 27.3117 22.9114C26.4865 23.7365 25.3673 24.2001 24.2004 24.2001H19.8004L13.2004 30.8001V24.2001H8.80039C7.63344 24.2001 6.51428 23.7365 5.68912 22.9114C4.86396 22.0862 4.40039 20.967 4.40039 19.8001V11.0001Z" fill="#8828FF"/>
<path d="M32.9999 15.3999V19.7999C32.9999 22.1338 32.0728 24.3721 30.4225 26.0224C28.7721 27.6728 26.5338 28.5999 24.1999 28.5999H21.6215L17.7363 32.4873C18.3523 32.8151 19.0541 32.9999 19.7999 32.9999H24.1999L30.7999 39.5999V32.9999H35.1999C36.3669 32.9999 37.486 32.5363 38.3112 31.7112C39.1364 30.886 39.5999 29.7669 39.5999 28.5999V19.7999C39.5999 18.6329 39.1364 17.5138 38.3112 16.6886C37.486 15.8635 36.3669 15.3999 35.1999 15.3999H32.9999Z" fill="#8828FF"/>
</svg>
