<svg width="44" height="44" viewBox="0 0 44 44" fill="none" xmlns="http://www.w3.org/2000/svg">
<path d="M35.709 27.2064L27.9302 34.9852L16.5195 23.5764C14.3324 24.1615 12.0181 24.0578 9.89211 23.2794C7.76614 22.5009 5.93204 21.0857 4.63993 19.2266C3.34783 17.3675 2.66061 15.1551 2.67201 12.8912C2.68342 10.6272 3.39288 8.42186 4.70365 6.57589L11.1845 13.0531C11.5282 13.3971 11.9946 13.5904 12.4809 13.5906C12.9672 13.5908 13.4337 13.3977 13.7777 13.054C14.1217 12.7102 14.3151 12.2439 14.3153 11.7575C14.3154 11.2712 14.1224 10.8047 13.7786 10.4607L7.29598 3.97806C9.14194 2.66729 11.3473 1.95783 13.6113 1.94643C15.8752 1.93503 18.0876 2.62224 19.9467 3.91435C21.8058 5.20646 23.221 7.04056 23.9995 9.16652C24.7779 11.2925 24.8816 13.6068 24.2965 15.7939L35.709 27.2064ZM38.3013 29.8006L39.5975 31.0967C40.629 32.1283 41.2085 33.5273 41.2085 34.9861C41.2085 36.445 40.629 37.844 39.5975 38.8756C38.5659 39.9071 37.1669 40.4866 35.7081 40.4866C34.2493 40.4866 32.8502 39.9071 31.8187 38.8756L30.5225 37.5776L38.3013 29.8006Z" fill="#8828FF"/>
</svg>
