<svg width="42" height="42" viewBox="0 0 42 42" fill="none" xmlns="http://www.w3.org/2000/svg">
<path d="M10.5 6.30005C9.38614 6.30005 8.31785 6.74255 7.5302 7.5302C6.74255 8.31785 6.30005 9.38614 6.30005 10.5V14.7C6.30005 15.814 6.74255 16.8822 7.5302 17.6699C8.31785 18.4576 9.38614 18.9 10.5 18.9H14.7001C15.814 18.9 16.8822 18.4576 17.6699 17.6699C18.4576 16.8822 18.9001 15.814 18.9001 14.7V10.5C18.9001 9.38614 18.4576 8.31785 17.6699 7.5302C16.8822 6.74255 15.814 6.30005 14.7001 6.30005H10.5ZM10.5 23.1C9.38614 23.1 8.31785 23.5425 7.5302 24.3302C6.74255 25.1179 6.30005 26.1861 6.30005 27.3001V31.5C6.30005 32.614 6.74255 33.6822 7.5302 34.4699C8.31785 35.2576 9.38614 35.7001 10.5 35.7001H14.7001C15.814 35.7001 16.8822 35.2576 17.6699 34.4699C18.4576 33.6822 18.9001 32.614 18.9001 31.5V27.3001C18.9001 26.1861 18.4576 25.1179 17.6699 24.3302C16.8822 23.5425 15.814 23.1 14.7001 23.1H10.5ZM23.1001 10.5C23.1001 9.38614 23.5426 8.31785 24.3302 7.5302C25.1179 6.74255 26.1861 6.30005 27.3001 6.30005H31.5001C32.614 6.30005 33.6822 6.74255 34.4699 7.5302C35.2576 8.31785 35.7001 9.38614 35.7001 10.5V14.7C35.7001 15.814 35.2576 16.8822 34.4699 17.6699C33.6822 18.4576 32.614 18.9 31.5001 18.9H27.3001C26.1861 18.9 25.1179 18.4576 24.3302 17.6699C23.5426 16.8822 23.1001 15.814 23.1001 14.7V10.5ZM23.1001 27.3001C23.1001 26.1861 23.5426 25.1179 24.3302 24.3302C25.1179 23.5425 26.1861 23.1 27.3001 23.1H31.5001C32.614 23.1 33.6822 23.5425 34.4699 24.3302C35.2576 25.1179 35.7001 26.1861 35.7001 27.3001V31.5C35.7001 32.614 35.2576 33.6822 34.4699 34.4699C33.6822 35.2576 32.614 35.7001 31.5001 35.7001H27.3001C26.1861 35.7001 25.1179 35.2576 24.3302 34.4699C23.5426 33.6822 23.1001 32.614 23.1001 31.5V27.3001Z" fill="#3F8DF9"/>
</svg>
