<svg width="54" height="54" viewBox="0 0 54 54" fill="none" xmlns="http://www.w3.org/2000/svg">
<path d="M36 36.146H29.25V18.146C29.25 17.5493 29.0129 16.977 28.591 16.5551C28.169 16.1331 27.5967 15.896 27 15.896C26.4033 15.896 25.831 16.1331 25.409 16.5551C24.9871 16.977 24.75 17.5493 24.75 18.146V36.146H18V33.3223C15.2483 31.4063 13.1799 28.662 12.0958 25.489C11.0118 22.316 10.9687 18.8798 11.9728 15.6806C12.9769 12.4814 14.9758 9.68612 17.6786 7.70163C20.3813 5.71715 23.6469 4.64703 27 4.64703C30.3531 4.64703 33.6187 5.71715 36.3214 7.70163C39.0242 9.68612 41.0231 12.4814 42.0272 15.6806C43.0313 18.8798 42.9882 22.316 41.9042 25.489C40.8201 28.662 38.7517 31.4063 36 33.3223V36.146ZM36 40.646V45.146C36 46.3395 35.5259 47.4841 34.682 48.328C33.8381 49.1719 32.6935 49.646 31.5 49.646H22.5C21.3065 49.646 20.1619 49.1719 19.318 48.328C18.4741 47.4841 18 46.3395 18 45.146V40.646H36Z" fill="#8828FF"/>
</svg>
