<svg width="44" height="44" viewBox="0 0 44 44" fill="none" xmlns="http://www.w3.org/2000/svg">
<path d="M27.5007 14.1423C27.0816 14.377 26.7327 14.7192 26.4898 15.1336C26.2469 15.548 26.1189 16.0196 26.1189 16.5C26.1189 16.9803 26.2469 17.4519 26.4898 17.8663C26.7327 18.2807 27.0816 18.6229 27.5007 18.8576L26.5803 21.945C26.083 21.859 25.5715 21.9142 25.1039 22.1042C24.6363 22.2942 24.2313 22.6114 23.9349 23.0199C23.6384 23.4284 23.4624 23.9118 23.4267 24.4153C23.3911 24.9187 23.4972 25.4221 23.7332 25.8683L21.0877 27.9253C20.7373 27.6382 20.3203 27.4438 19.8751 27.3601C19.4299 27.2764 18.9708 27.3061 18.5401 27.4463C18.1094 27.5865 17.7208 27.8328 17.4102 28.1626C17.0997 28.4924 16.877 28.8949 16.7628 29.3333L12.5388 29.3223C12.423 28.8866 12.1999 28.4869 11.8899 28.1595C11.58 27.8322 11.193 27.5876 10.7643 27.4482C10.3356 27.3088 9.87879 27.2789 9.43557 27.3612C8.99235 27.4436 8.5768 27.6356 8.22682 27.9198L5.58315 25.8463C5.81276 25.4018 5.9144 24.9024 5.87674 24.4035C5.83909 23.9047 5.66361 23.4261 5.36989 23.0212C5.07617 22.6163 4.67574 22.3009 4.21326 22.1102C3.75078 21.9195 3.24442 21.861 2.75065 21.9413L1.83398 18.843C2.24563 18.606 2.58756 18.2648 2.82532 17.8536C3.06308 17.4424 3.18826 16.9758 3.18826 16.5009C3.18826 16.0259 3.06308 15.5593 2.82532 15.1482C2.58756 14.737 2.24563 14.3957 1.83398 14.1588L2.75065 11.0605C3.24442 11.1407 3.75078 11.0822 4.21326 10.8916C4.67574 10.7009 5.07617 10.3855 5.36989 9.98055C5.66361 9.57561 5.83909 9.09705 5.87674 8.59822C5.9144 8.09939 5.81276 7.5999 5.58315 7.15546L8.22682 5.07829C8.5768 5.36287 8.9925 5.55525 9.43596 5.63786C9.87941 5.72047 10.3365 5.69068 10.7655 5.55121C11.1945 5.41175 11.5817 5.16704 11.8918 4.83944C12.2018 4.51184 12.4249 4.11178 12.5407 3.67579L16.7628 3.66663C16.8772 4.10466 17.0998 4.50692 17.4102 4.83642C17.7207 5.16592 18.109 5.41209 18.5394 5.55229C18.9699 5.69249 19.4287 5.72222 19.8737 5.63876C20.3186 5.55529 20.7354 5.3613 21.0858 5.07463L23.7332 7.13163C23.4972 7.57782 23.3911 8.0812 23.4267 8.58466C23.4624 9.08812 23.6384 9.57151 23.9349 9.98001C24.2313 10.3885 24.6363 10.7057 25.1039 10.8957C25.5715 11.0857 26.083 11.1409 26.5803 11.055L27.5007 14.1423ZM14.6673 22C15.3896 22 16.1048 21.8577 16.7721 21.5813C17.4394 21.3049 18.0457 20.8998 18.5564 20.389C19.0671 19.8783 19.4723 19.272 19.7487 18.6047C20.0251 17.9374 20.1673 17.2222 20.1673 16.5C20.1673 15.7777 20.0251 15.0625 19.7487 14.3952C19.4723 13.7279 19.0671 13.1216 18.5564 12.6109C18.0457 12.1001 17.4394 11.695 16.7721 11.4186C16.1048 11.1422 15.3896 11 14.6673 11C13.2086 11 11.8097 11.5794 10.7782 12.6109C9.74678 13.6423 9.16732 15.0413 9.16732 16.5C9.16732 17.9586 9.74678 19.3576 10.7782 20.389C11.8097 21.4205 13.2086 22 14.6673 22ZM28.2211 22.1118C29.1959 19.7611 29.5403 17.1967 29.2203 14.6721L31.4313 14.6666C31.5457 15.1047 31.7683 15.5069 32.0787 15.8364C32.3892 16.1659 32.7775 16.4121 33.2079 16.5523C33.6384 16.6925 34.0972 16.7222 34.5422 16.6388C34.9871 16.5553 35.4039 16.3613 35.7543 16.0746L38.4016 18.1316C38.1657 18.5778 38.0596 19.0812 38.0952 19.5847C38.1309 20.0881 38.3069 20.5715 38.6034 20.98C38.8998 21.3885 39.3048 21.7057 39.7724 21.8957C40.24 22.0857 40.7515 22.1409 41.2488 22.055L42.1673 25.1423C41.7483 25.377 41.3993 25.7192 41.1565 26.1336C40.9136 26.548 40.7856 27.0196 40.7856 27.5C40.7856 27.9803 40.9136 28.4519 41.1565 28.8663C41.3993 29.2807 41.7483 29.6229 42.1673 29.8576L41.247 32.945C40.7496 32.859 40.2381 32.9142 39.7706 33.1042C39.303 33.2942 38.898 33.6114 38.6015 34.0199C38.3051 34.4284 38.1291 34.9118 38.0934 35.4153C38.0577 35.9187 38.1639 36.4221 38.3998 36.8683L35.7543 38.9253C35.4039 38.6382 34.987 38.4438 34.5418 38.3601C34.0966 38.2764 33.6375 38.3061 33.2068 38.4463C32.776 38.5865 32.3875 38.8328 32.0769 39.1626C31.7663 39.4924 31.5437 39.8949 31.4295 40.3333L27.2055 40.3223C27.0896 39.8866 26.8666 39.4869 26.5566 39.1595C26.2466 38.8322 25.8597 38.5876 25.431 38.4482C25.0023 38.3088 24.5455 38.2789 24.1022 38.3612C23.659 38.4436 23.2435 38.6356 22.8935 38.9198L20.2498 36.8463C20.4794 36.4018 20.5811 35.9024 20.5434 35.4035C20.5058 34.9047 20.3303 34.4261 20.0366 34.0212C19.7428 33.6163 19.3424 33.3009 18.8799 33.1102C18.4174 32.9195 17.9111 32.861 17.4173 32.9413L16.8453 31.0053C19.4116 30.6229 21.8296 29.5635 23.8505 27.9363C23.9394 29.0496 24.3652 30.1094 25.0711 30.9748C25.7771 31.8402 26.7297 32.4702 27.8024 32.781C28.8751 33.0918 30.017 33.0686 31.0763 32.7147C32.1355 32.3607 33.0619 31.6926 33.7322 30.7993C34.4025 29.9061 34.785 28.8299 34.8288 27.7139C34.8726 26.598 34.5756 25.4951 33.9774 24.552C33.3791 23.609 32.5079 22.8704 31.4797 22.4345C30.4515 21.9986 29.3149 21.886 28.2211 22.1118Z" fill="#8828FF"/>
</svg>
