<svg width="136" height="26" viewBox="0 0 136 26" fill="none" xmlns="http://www.w3.org/2000/svg">
<path d="M24.1064 13C24.1064 19.6274 18.71 25 12.0532 25C5.3964 25 0 19.6274 0 13C0 6.37258 5.3964 1 12.0532 1C18.71 1 24.1064 6.37258 24.1064 13Z" fill="#8828FF"/>
<path d="M15.3828 9.08594C15.3828 9.34635 15.3333 9.58333 15.2344 9.79688C15.1406 10.0052 15.0078 10.1849 14.8359 10.3359C14.6641 10.487 14.4609 10.6042 14.2266 10.6875C13.9974 10.7708 13.7474 10.8125 13.4766 10.8125C13.1797 10.8125 12.9245 10.776 12.7109 10.7031C12.5026 10.6302 12.3255 10.5391 12.1797 10.4297C12.0391 10.3151 11.9271 10.1901 11.8438 10.0547C11.7604 9.91406 11.6953 9.77865 11.6484 9.64844C11.6068 9.51823 11.5781 9.39844 11.5625 9.28906C11.5521 9.17969 11.5469 9.09635 11.5469 9.03906C11.6094 9.14323 11.6823 9.21094 11.7656 9.24219C11.849 9.26823 11.9193 9.28125 11.9766 9.28125C12.1224 9.28125 12.224 9.24219 12.2812 9.16406C12.3438 9.08594 12.375 9.0026 12.375 8.91406C12.375 8.85677 12.362 8.79688 12.3359 8.73438C12.3151 8.67188 12.2734 8.61458 12.2109 8.5625C12.1536 8.50521 12.0729 8.45833 11.9688 8.42188C11.8698 8.38542 11.7448 8.36719 11.5938 8.36719C11.4896 8.36719 11.3828 8.38802 11.2734 8.42969C11.1641 8.46615 11.0625 8.52604 10.9688 8.60938C10.8802 8.6875 10.8073 8.78646 10.75 8.90625C10.6927 9.02604 10.6641 9.16667 10.6641 9.32812C10.6641 9.48438 10.6953 9.64062 10.7578 9.79688C10.8255 9.94792 10.9141 10.0911 11.0234 10.2266C11.138 10.362 11.2708 10.4844 11.4219 10.5938C11.5781 10.7031 11.7474 10.7943 11.9297 10.8672C12.2161 10.987 12.5104 11.1042 12.8125 11.2188C13.1198 11.3333 13.4167 11.4583 13.7031 11.5938C13.9896 11.7292 14.2578 11.8854 14.5078 12.0625C14.763 12.2344 14.9844 12.4401 15.1719 12.6797C15.3646 12.9193 15.5156 13.2005 15.625 13.5234C15.7396 13.8411 15.7969 14.2135 15.7969 14.6406C15.7969 15.25 15.6719 15.8073 15.4219 16.3125C15.1771 16.8125 14.8464 17.2422 14.4297 17.6016C14.0182 17.9557 13.5391 18.2292 12.9922 18.4219C12.4505 18.6198 11.8828 18.7188 11.2891 18.7188C10.7526 18.7188 10.2422 18.638 9.75781 18.4766C9.27344 18.3203 8.84896 18.1042 8.48438 17.8281C8.11979 17.5521 7.82812 17.2292 7.60938 16.8594C7.39583 16.4844 7.28906 16.0807 7.28906 15.6484C7.28906 15.3307 7.34115 15.0521 7.44531 14.8125C7.54948 14.5729 7.69271 14.375 7.875 14.2188C8.0625 14.0573 8.27865 13.9375 8.52344 13.8594C8.77344 13.7812 9.03906 13.7422 9.32031 13.7422C9.53906 13.7422 9.7526 13.7656 9.96094 13.8125C10.1745 13.8594 10.3724 13.9297 10.5547 14.0234C10.7422 14.112 10.9089 14.2214 11.0547 14.3516C11.2057 14.4818 11.3255 14.6302 11.4141 14.7969C11.3047 14.7656 11.2083 14.75 11.125 14.75C10.9844 14.75 10.8724 14.7917 10.7891 14.875C10.7057 14.9583 10.6641 15.0833 10.6641 15.25C10.6641 15.3385 10.6849 15.4219 10.7266 15.5C10.7682 15.5729 10.8203 15.638 10.8828 15.6953C10.9505 15.7526 11.026 15.7969 11.1094 15.8281C11.1979 15.8594 11.2891 15.875 11.3828 15.875C11.487 15.875 11.5833 15.8542 11.6719 15.8125C11.7604 15.7656 11.8385 15.7057 11.9062 15.6328C11.974 15.5599 12.026 15.4792 12.0625 15.3906C12.099 15.3021 12.1172 15.2109 12.1172 15.1172C12.1172 14.9349 12.0599 14.75 11.9453 14.5625C11.8359 14.375 11.6745 14.2083 11.4609 14.0625C11.0547 13.8125 10.6719 13.5964 10.3125 13.4141C9.95312 13.2318 9.6224 13.0599 9.32031 12.8984C9.01823 12.7318 8.74479 12.5651 8.5 12.3984C8.26042 12.2318 8.05469 12.0391 7.88281 11.8203C7.71615 11.6016 7.58854 11.3464 7.5 11.0547C7.41146 10.7578 7.36719 10.401 7.36719 9.98438C7.36719 9.48438 7.46354 9.01562 7.65625 8.57812C7.84896 8.14062 8.1276 7.76042 8.49219 7.4375C8.86198 7.10938 9.3125 6.85156 9.84375 6.66406C10.375 6.47656 10.9792 6.38281 11.6562 6.38281C12.3385 6.38281 12.9167 6.46615 13.3906 6.63281C13.8646 6.79427 14.2474 7.00521 14.5391 7.26562C14.8359 7.52604 15.0495 7.81771 15.1797 8.14062C15.3151 8.45833 15.3828 8.77344 15.3828 9.08594Z" fill="white"/>
<path d="M38.2464 20.24C37.2198 20.24 36.3131 20.0667 35.5264 19.72C34.7398 19.36 34.1198 18.8533 33.6664 18.2C33.2131 17.5333 32.9798 16.7267 32.9664 15.78H35.6664C35.6931 16.4333 35.9264 16.9867 36.3664 17.44C36.8198 17.88 37.4398 18.1 38.2264 18.1C38.9064 18.1 39.4464 17.94 39.8464 17.62C40.2464 17.2867 40.4464 16.8467 40.4464 16.3C40.4464 15.7267 40.2664 15.28 39.9064 14.96C39.5598 14.64 39.0931 14.38 38.5064 14.18C37.9198 13.98 37.2931 13.7667 36.6264 13.54C35.5464 13.1667 34.7198 12.6867 34.1464 12.1C33.5864 11.5133 33.3064 10.7333 33.3064 9.76C33.2931 8.93333 33.4864 8.22667 33.8864 7.64C34.2998 7.04 34.8598 6.58 35.5664 6.26C36.2731 5.92667 37.0864 5.76 38.0064 5.76C38.9398 5.76 39.7598 5.92667 40.4664 6.26C41.1864 6.59333 41.7464 7.06 42.1464 7.66C42.5598 8.26 42.7798 8.97333 42.8064 9.8H40.0664C40.0531 9.30667 39.8598 8.87333 39.4864 8.5C39.1264 8.11333 38.6198 7.92 37.9664 7.92C37.4064 7.90667 36.9331 8.04667 36.5464 8.34C36.1731 8.62 35.9864 9.03333 35.9864 9.58C35.9864 10.0467 36.1331 10.42 36.4264 10.7C36.7198 10.9667 37.1198 11.1933 37.6264 11.38C38.1331 11.5667 38.7131 11.7667 39.3664 11.98C40.0598 12.22 40.6931 12.5 41.2664 12.82C41.8398 13.14 42.2998 13.5667 42.6464 14.1C42.9931 14.62 43.1664 15.2933 43.1664 16.12C43.1664 16.8533 42.9798 17.5333 42.6064 18.16C42.2331 18.7867 41.6798 19.2933 40.9464 19.68C40.2131 20.0533 39.3131 20.24 38.2464 20.24ZM46.5 20L51.62 6H54.5L59.62 20H56.9L55.78 16.76H50.32L49.18 20H46.5ZM51.02 14.76H55.08L53.04 8.94L51.02 14.76ZM68.2035 20.24C67.1768 20.24 66.2701 20.0667 65.4835 19.72C64.6968 19.36 64.0768 18.8533 63.6235 18.2C63.1701 17.5333 62.9368 16.7267 62.9235 15.78H65.6235C65.6501 16.4333 65.8835 16.9867 66.3235 17.44C66.7768 17.88 67.3968 18.1 68.1835 18.1C68.8635 18.1 69.4035 17.94 69.8035 17.62C70.2035 17.2867 70.4035 16.8467 70.4035 16.3C70.4035 15.7267 70.2235 15.28 69.8635 14.96C69.5168 14.64 69.0501 14.38 68.4635 14.18C67.8768 13.98 67.2501 13.7667 66.5835 13.54C65.5035 13.1667 64.6768 12.6867 64.1035 12.1C63.5435 11.5133 63.2635 10.7333 63.2635 9.76C63.2501 8.93333 63.4435 8.22667 63.8435 7.64C64.2568 7.04 64.8168 6.58 65.5235 6.26C66.2301 5.92667 67.0435 5.76 67.9635 5.76C68.8968 5.76 69.7168 5.92667 70.4235 6.26C71.1435 6.59333 71.7035 7.06 72.1035 7.66C72.5168 8.26 72.7368 8.97333 72.7635 9.8H70.0235C70.0101 9.30667 69.8168 8.87333 69.4435 8.5C69.0835 8.11333 68.5768 7.92 67.9235 7.92C67.3635 7.90667 66.8901 8.04667 66.5035 8.34C66.1301 8.62 65.9435 9.03333 65.9435 9.58C65.9435 10.0467 66.0901 10.42 66.3835 10.7C66.6768 10.9667 67.0768 11.1933 67.5835 11.38C68.0901 11.5667 68.6701 11.7667 69.3235 11.98C70.0168 12.22 70.6501 12.5 71.2235 12.82C71.7968 13.14 72.2568 13.5667 72.6035 14.1C72.9501 14.62 73.1235 15.2933 73.1235 16.12C73.1235 16.8533 72.9368 17.5333 72.5635 18.16C72.1901 18.7867 71.6368 19.2933 70.9035 19.68C70.1701 20.0533 69.2701 20.24 68.2035 20.24ZM82.1371 20.24C81.1104 20.24 80.2037 20.0667 79.4171 19.72C78.6304 19.36 78.0104 18.8533 77.5571 18.2C77.1037 17.5333 76.8704 16.7267 76.8571 15.78H79.5571C79.5837 16.4333 79.8171 16.9867 80.2571 17.44C80.7104 17.88 81.3304 18.1 82.1171 18.1C82.7971 18.1 83.3371 17.94 83.7371 17.62C84.1371 17.2867 84.3371 16.8467 84.3371 16.3C84.3371 15.7267 84.1571 15.28 83.7971 14.96C83.4504 14.64 82.9837 14.38 82.3971 14.18C81.8104 13.98 81.1837 13.7667 80.5171 13.54C79.4371 13.1667 78.6104 12.6867 78.0371 12.1C77.4771 11.5133 77.1971 10.7333 77.1971 9.76C77.1837 8.93333 77.3771 8.22667 77.7771 7.64C78.1904 7.04 78.7504 6.58 79.4571 6.26C80.1637 5.92667 80.9771 5.76 81.8971 5.76C82.8304 5.76 83.6504 5.92667 84.3571 6.26C85.0771 6.59333 85.6371 7.06 86.0371 7.66C86.4504 8.26 86.6704 8.97333 86.6971 9.8H83.9571C83.9437 9.30667 83.7504 8.87333 83.3771 8.5C83.0171 8.11333 82.5104 7.92 81.8571 7.92C81.2971 7.90667 80.8237 8.04667 80.4371 8.34C80.0637 8.62 79.8771 9.03333 79.8771 9.58C79.8771 10.0467 80.0237 10.42 80.3171 10.7C80.6104 10.9667 81.0104 11.1933 81.5171 11.38C82.0237 11.5667 82.6037 11.7667 83.2571 11.98C83.9504 12.22 84.5837 12.5 85.1571 12.82C85.7304 13.14 86.1904 13.5667 86.5371 14.1C86.8837 14.62 87.0571 15.2933 87.0571 16.12C87.0571 16.8533 86.8704 17.5333 86.4971 18.16C86.1237 18.7867 85.5704 19.2933 84.8371 19.68C84.1037 20.0533 83.2037 20.24 82.1371 20.24ZM97.6307 20.24C96.2173 20.24 95.004 19.94 93.9907 19.34C92.9773 18.7267 92.1973 17.88 91.6507 16.8C91.104 15.7067 90.8307 14.4467 90.8307 13.02C90.8307 11.5933 91.104 10.3333 91.6507 9.24C92.1973 8.14667 92.9773 7.29333 93.9907 6.68C95.004 6.06667 96.2173 5.76 97.6307 5.76C99.3107 5.76 100.684 6.18 101.751 7.02C102.831 7.84667 103.504 9.01333 103.771 10.52H100.951C100.777 9.76 100.404 9.16667 99.8307 8.74C99.2707 8.3 98.524 8.08 97.5907 8.08C96.2973 8.08 95.284 8.52 94.5507 9.4C93.8173 10.28 93.4507 11.4867 93.4507 13.02C93.4507 14.5533 93.8173 15.76 94.5507 16.64C95.284 17.5067 96.2973 17.94 97.5907 17.94C98.524 17.94 99.2707 17.74 99.8307 17.34C100.404 16.9267 100.777 16.36 100.951 15.64H103.771C103.504 17.08 102.831 18.2067 101.751 19.02C100.684 19.8333 99.3107 20.24 97.6307 20.24ZM113.437 20.24C112.41 20.24 111.483 20.04 110.657 19.64C109.83 19.2267 109.17 18.6067 108.677 17.78C108.197 16.9533 107.957 15.9067 107.957 14.64V6H110.517V14.66C110.517 15.7533 110.777 16.5667 111.297 17.1C111.83 17.6333 112.563 17.9 113.497 17.9C114.417 17.9 115.143 17.6333 115.677 17.1C116.21 16.5667 116.477 15.7533 116.477 14.66V6H119.037V14.64C119.037 15.9067 118.783 16.9533 118.277 17.78C117.77 18.6067 117.09 19.2267 116.237 19.64C115.397 20.04 114.463 20.24 113.437 20.24ZM127.27 20V15.02L122.57 6H125.47L128.57 12.46L131.65 6H134.51L129.83 15.02V20H127.27Z" fill="#8828FF"/>
</svg>
