<svg width="36" height="38" viewBox="0 0 36 38" fill="none" xmlns="http://www.w3.org/2000/svg">
<path d="M8.65367 25.1597C8.13708 24.3776 9.43637 23.1939 8.90791 22.2001C8.60327 21.6268 8.10531 21.2697 7.50731 21.1947C6.93338 21.1227 6.34215 21.3328 5.9653 21.7434C5.37031 22.3909 5.27779 23.2722 5.39288 23.5841C5.435 23.6984 5.50119 23.7296 5.54858 23.7363C5.87264 23.7789 6.055 22.9472 6.16689 22.774C6.47623 22.2965 7.17866 22.152 7.66377 22.4659C8.58359 23.0608 7.78601 24.0223 7.85483 24.8344C7.92178 25.6252 8.41447 25.943 8.85676 25.9764C9.28702 25.9927 9.5879 25.7536 9.66387 25.5792C9.84603 25.1626 9.07871 25.8032 8.65367 25.1597Z" fill="black"/>
<path d="M27.8724 17.9805C27.6311 17.9471 27.3674 17.9479 27.0931 17.9805C26.8848 17.7176 26.6982 17.2921 26.5929 16.7955C26.4056 15.9119 26.4251 15.2718 26.9479 15.1887C27.4707 15.1055 27.7234 15.6401 27.9107 16.5237C28.0364 17.1177 28.0123 17.6634 27.8724 17.9805Z" fill="black"/>
<path d="M22.1465 18.5062C22.1672 18.7063 22.1745 18.9087 22.1687 19.0951C22.6745 19.1248 23.0328 19.3651 23.1282 19.5175C23.1771 19.5962 23.1575 19.6474 23.1417 19.6712C23.0894 19.7527 22.9772 19.7401 22.7421 19.7137C22.5367 19.6906 22.3156 19.6704 22.0858 19.6809C21.9608 20.0644 21.59 20.1003 21.3295 19.8167C21.1475 19.8722 20.79 20.1004 20.6835 19.8524C20.6826 19.7293 20.8113 19.5504 21.0444 19.3923C20.8853 19.0888 20.7786 18.7638 20.7156 18.4274C20.3852 18.4869 20.0879 18.5795 19.8549 18.652C19.7455 18.6861 19.3126 18.8816 19.2619 18.6613C19.228 18.5091 19.465 18.2581 19.7155 18.0769C19.9953 17.8782 20.3059 17.737 20.6277 17.6555C20.6208 17.1762 20.7431 16.8419 21.0913 16.7865C21.523 16.7179 21.7906 17.0502 21.9757 17.6658C22.4975 17.8107 23.0185 18.1701 23.2485 18.5417C23.3381 18.6858 23.3554 18.7972 23.2974 18.8558C23.1528 19.0057 22.3517 18.5712 22.1465 18.5062Z" fill="black"/>
<path d="M25.5774 20.6601C25.9084 20.8205 26.2724 20.7574 26.3913 20.5191C26.5101 20.2807 26.3379 19.9577 26.0069 19.7974C25.6759 19.637 25.3119 19.7001 25.193 19.9384C25.0742 20.1768 25.2464 20.4998 25.5774 20.6601Z" fill="black"/>
<path d="M27.2066 19.4766C27.2126 19.112 27.436 18.821 27.7046 18.8254C27.9731 18.8306 28.186 19.1291 28.1799 19.4929C28.1739 19.8567 27.9505 20.1478 27.682 20.1434C27.4135 20.1389 27.2006 19.8404 27.2066 19.4766Z" fill="black"/>
<path fill-rule="evenodd" clip-rule="evenodd" d="M34.4887 23.9412C34.494 23.9598 34.4865 23.9337 34.4887 23.9412C35.028 23.9412 35.875 24.5531 35.875 26.0314C35.875 27.5023 35.2567 29.1684 35.1108 29.5382C32.8835 34.807 27.5677 37.7398 21.2357 37.5542C15.3324 37.3812 10.2979 34.3065 8.09473 29.2939C6.76259 29.2954 5.38907 28.717 4.34501 27.8037C3.24454 26.8414 2.56606 25.5963 2.43367 24.2976C2.33062 23.2864 2.45624 22.3456 2.77743 21.5252L1.54006 20.4901C-4.12251 15.7708 13.5881 -3.66034 19.2521 1.21638C19.2807 1.24088 21.1793 3.0793 21.1838 3.08376C23.9149 1.93913 31.2325 -0.240203 31.2407 4.83308C31.2437 6.51781 30.156 8.48246 28.4132 10.2652C30.4273 12.109 29.8962 14.7281 30.2169 17.1311L30.9165 17.3226C32.2501 17.6916 33.1987 18.1839 33.6628 18.6651C34.1269 19.1455 34.3571 19.611 34.4406 20.1567C34.5188 20.597 34.5083 21.3744 33.92 22.2439C34.1318 22.8048 34.3252 23.364 34.4887 23.9412ZM7.99469 27.927C8.19252 27.9314 8.38884 27.9188 8.58141 27.8861C10.6507 27.5379 11.1923 25.3193 10.8515 23.1408C10.4664 20.6809 8.78074 19.8137 7.63664 19.7521C7.31846 19.7357 7.02285 19.764 6.77913 19.8122C4.73691 20.2184 3.58379 21.9335 3.81095 24.161C4.0163 26.1769 6.08185 27.8765 7.99469 27.927ZM3.36941 20.4166C4.05466 19.4343 5.17469 18.7237 6.44591 18.4794C8.06389 14.1923 10.7658 10.2422 14.3418 7.52389C16.9955 5.33872 19.8576 3.77131 19.8576 3.77131C19.8576 3.77131 18.3164 2.00714 17.8508 1.8772C14.9871 1.11391 8.80255 5.32387 4.8535 10.8867C3.25583 13.1372 0.968386 17.1229 2.06209 19.1729C2.19673 19.4269 2.96021 20.0795 3.36941 20.4166ZM26.5861 26.9424C26.5906 26.9885 26.562 27.036 26.5206 27.0531C26.5206 27.0531 24.2197 28.1096 20.5647 26.9937C20.6961 28.0892 22.0247 28.5044 22.953 28.6546C27.4819 29.4238 31.7161 26.8674 32.6691 26.2237C32.8328 26.1132 32.6671 26.3973 32.6375 26.439C31.4709 27.9247 28.3342 29.6451 24.2535 29.6444C22.4738 29.6436 20.6948 29.0251 20.0419 28.074C19.0287 26.5986 19.9915 24.4447 21.6802 24.6689C24.5346 24.9871 27.461 24.748 30.1034 23.5373C32.4074 22.4815 33.2777 21.3202 33.1468 20.3795C32.9438 18.9215 30.7822 18.6936 29.6897 18.3391C29.2143 18.1839 28.9796 18.0599 28.9262 17.1771C28.9029 16.7917 28.8352 15.4471 28.8103 14.8909C28.7667 13.9175 28.6479 12.5862 27.8114 12.0368C27.5933 11.8935 27.3511 11.8244 27.0961 11.8111C26.8928 11.8014 26.7722 11.8293 26.7074 11.8443C26.6928 11.8477 26.6811 11.8504 26.6718 11.8519C26.2202 11.9277 25.9434 12.1562 25.617 12.4257C25.5982 12.4412 25.5793 12.4569 25.5601 12.4726C24.5168 13.331 23.6359 13.4713 22.6558 13.4297C22.3506 13.417 22.036 13.3865 21.7041 13.3543C21.3989 13.3247 21.079 13.2937 20.7385 13.2738L20.3225 13.25C18.6812 13.1669 16.9211 14.5657 16.6284 16.5527C16.3015 18.7705 17.5412 20.1289 18.3474 21.0124C18.5466 21.2307 18.7193 21.42 18.8354 21.5861C18.9099 21.6863 18.9964 21.8274 18.9964 21.9618C18.9964 22.1221 18.8911 22.2491 18.788 22.3575C17.1136 24.0571 16.5781 26.7575 17.2091 29.0081C17.2881 29.2887 17.3882 29.5575 17.5063 29.8144C18.9866 33.2291 23.5795 34.8196 28.0657 33.3732C31.2098 32.3594 33.9877 29.9097 34.5534 26.5303C34.688 25.6497 34.4902 25.3097 34.2209 25.1456C33.9358 24.9726 33.5943 25.0327 33.5943 25.0327C33.5943 25.0327 33.4386 23.9806 32.9978 23.0243C31.6898 24.043 30.0063 24.7587 28.7246 25.1218C26.671 25.7034 24.4527 25.9298 22.3306 25.6555C21.4699 25.5443 20.8916 25.4696 20.6437 26.2645C23.4742 27.2877 26.4702 26.8496 26.4702 26.8496C26.5282 26.8437 26.5801 26.8853 26.5861 26.9424ZM18.4194 7.0873C16.8714 7.86915 15.1429 9.26133 13.7392 10.8629C13.6896 10.9201 13.7633 10.9988 13.8242 10.955C15.0368 10.084 16.6992 9.2747 18.8768 8.7505C21.3162 8.16318 23.6645 8.40969 25.099 8.73416C25.1712 8.7505 25.2163 8.62799 25.1524 8.59235C24.2046 8.0674 22.7499 7.711 21.7178 7.70358C21.6674 7.70283 21.6389 7.64492 21.6689 7.60482C21.8472 7.36797 22.0917 7.13408 22.3151 6.96479C22.3647 6.92618 22.3346 6.84674 22.2715 6.85045C20.9876 6.92827 18.0554 8.26528 18.0659 8.21664C18.1411 7.86024 18.3781 7.3895 18.5007 7.16972C18.53 7.11775 18.4728 7.06057 18.4194 7.0873Z" fill="black"/>
</svg>
