<svg width="44" height="44" viewBox="0 0 44 44" fill="none" xmlns="http://www.w3.org/2000/svg">
<path d="M40.3346 16.5003H3.66797V12.8337C3.66797 11.8612 4.05428 10.9286 4.74191 10.2409C5.42954 9.5533 6.36218 9.16699 7.33464 9.16699H36.668C37.6404 9.16699 38.5731 9.5533 39.2607 10.2409C39.9483 10.9286 40.3346 11.8612 40.3346 12.8337V16.5003ZM40.3346 22.0003V31.167C40.3346 32.1395 39.9483 33.0721 39.2607 33.7597C38.5731 34.4474 37.6404 34.8337 36.668 34.8337H7.33464C6.36218 34.8337 5.42954 34.4474 4.74191 33.7597C4.05428 33.0721 3.66797 32.1395 3.66797 31.167V22.0003H40.3346ZM11.0013 25.667C10.5151 25.667 10.0488 25.8601 9.70494 26.204C9.36112 26.5478 9.16797 27.0141 9.16797 27.5003C9.16797 27.9866 9.36112 28.4529 9.70494 28.7967C10.0488 29.1405 10.5151 29.3337 11.0013 29.3337H12.8346C13.3209 29.3337 13.7872 29.1405 14.131 28.7967C14.4748 28.4529 14.668 27.9866 14.668 27.5003C14.668 27.0141 14.4748 26.5478 14.131 26.204C13.7872 25.8601 13.3209 25.667 12.8346 25.667H11.0013ZM20.168 25.667C19.6817 25.667 19.2154 25.8601 18.8716 26.204C18.5278 26.5478 18.3346 27.0141 18.3346 27.5003C18.3346 27.9866 18.5278 28.4529 18.8716 28.7967C19.2154 29.1405 19.6817 29.3337 20.168 29.3337H29.3346C29.8209 29.3337 30.2872 29.1405 30.631 28.7967C30.9748 28.4529 31.168 27.9866 31.168 27.5003C31.168 27.0141 30.9748 26.5478 30.631 26.204C30.2872 25.8601 29.8209 25.667 29.3346 25.667H20.168Z" fill="#00BE9B"/>
</svg>
