<svg width="120" height="120" viewBox="0 0 120 120" fill="none" xmlns="http://www.w3.org/2000/svg">
<path d="M60 7.5C31.043 7.5 7.5 31.043 7.5 60C7.5 88.957 31.043 112.5 60 112.5C88.957 112.5 112.5 88.957 112.5 60C112.5 31.043 88.957 7.5 60 7.5Z" fill="#F48024"/>
<path d="M73.2778 68.8604L45.4068 64.8318L46.3728 58.7273L73.6272 63.9685L73.2778 68.8604Z" fill="white"/>
<path d="M73.7711 62.3654L49.1065 50.8552L51.3674 45.9223L76.032 57.4324L73.7711 62.3654Z" fill="white"/>
<path d="M77.0597 56.1993L56.0948 38.7284L59.5889 34.6177L80.5538 52.0885L77.0597 56.1993Z" fill="white"/>
<path d="M65.1385 29.2737L69.4548 25.9851L85.6923 47.7721L81.376 51.0608L65.1385 29.2737Z" fill="white"/>
<path d="M73.36 76.9586H44.5846V70.7924H73.36V76.9586Z" fill="white"/>
<path d="M77.4707 64.6259V81.0689H40.4738V64.6259H34.3076V87.2351H83.6368V64.6259H77.4707Z" fill="white"/>
</svg>
