<svg width="54" height="54" viewBox="0 0 54 54" fill="none" xmlns="http://www.w3.org/2000/svg">
<path d="M35.0992 16.2C35.0992 18.3483 34.2458 20.4085 32.7268 21.9276C31.2077 23.4466 29.1475 24.3 26.9992 24.3C24.851 24.3 22.7907 23.4466 21.2717 21.9276C19.7526 20.4085 18.8992 18.3483 18.8992 16.2C18.8992 14.0518 19.7526 11.9915 21.2717 10.4724C22.7907 8.9534 24.851 8.10001 26.9992 8.10001C29.1475 8.10001 31.2077 8.9534 32.7268 10.4724C34.2458 11.9915 35.0992 14.0518 35.0992 16.2ZM48.5992 21.6C48.5992 23.0322 48.0303 24.4057 47.0176 25.4184C46.0049 26.4311 44.6314 27 43.1992 27C41.7671 27 40.3935 26.4311 39.3808 25.4184C38.3681 24.4057 37.7992 23.0322 37.7992 21.6C37.7992 20.1678 38.3681 18.7943 39.3808 17.7816C40.3935 16.7689 41.7671 16.2 43.1992 16.2C44.6314 16.2 46.0049 16.7689 47.0176 17.7816C48.0303 18.7943 48.5992 20.1678 48.5992 21.6ZM37.7992 40.5C37.7992 37.6357 36.6614 34.8886 34.636 32.8633C32.6106 30.8379 29.8636 29.7 26.9992 29.7C24.1349 29.7 21.3879 30.8379 19.3625 32.8633C17.3371 34.8886 16.1992 37.6357 16.1992 40.5V48.6H37.7992V40.5ZM16.1992 21.6C16.1992 23.0322 15.6303 24.4057 14.6176 25.4184C13.6049 26.4311 12.2314 27 10.7992 27C9.36705 27 7.99354 26.4311 6.98084 25.4184C5.96815 24.4057 5.39922 23.0322 5.39922 21.6C5.39922 20.1678 5.96815 18.7943 6.98084 17.7816C7.99354 16.7689 9.36705 16.2 10.7992 16.2C12.2314 16.2 13.6049 16.7689 14.6176 17.7816C15.6303 18.7943 16.1992 20.1678 16.1992 21.6ZM43.1992 48.6V40.5C43.2031 37.7549 42.5061 35.0542 41.1742 32.6538C42.3713 32.3475 43.6224 32.3186 44.8323 32.5693C46.0422 32.8201 47.1789 33.3439 48.1556 34.1008C49.1322 34.8576 49.9232 35.8276 50.468 36.9366C51.0128 38.0456 51.2971 39.2644 51.2992 40.5V48.6H43.1992ZM12.8242 32.6538C11.4924 35.0542 10.7954 37.7549 10.7992 40.5V48.6H2.69922V40.5C2.6987 39.2635 2.98127 38.0433 3.52528 36.9329C4.06928 35.8225 4.86028 34.8514 5.83766 34.094C6.81503 33.3366 7.95283 32.813 9.16386 32.5634C10.3749 32.3138 11.627 32.3447 12.8242 32.6538Z" fill="#8828FF"/>
</svg>
