<svg width="42" height="42" viewBox="0 0 42 42" fill="none" xmlns="http://www.w3.org/2000/svg">
<path fill-rule="evenodd" clip-rule="evenodd" d="M36.21 0.75H5.81571C3.018 0.75 0.75 3.01656 0.75 5.8125V36.1875C0.75 38.9834 3.018 41.25 5.81571 41.25H36.21C38.9977 41.2359 41.25 38.9734 41.25 36.1875V5.8125C41.25 3.02656 38.9977 0.764142 36.21 0.75ZM9.1875 5.8125H15.9375C17.8015 5.8125 19.3125 7.32354 19.3125 9.1875V32.8125C19.3125 34.6765 17.8015 36.1875 15.9375 36.1875H9.1875C7.32354 36.1875 5.8125 34.6765 5.8125 32.8125V9.1875C5.8125 7.32354 7.32354 5.8125 9.1875 5.8125ZM32.8125 5.8125H26.0625C24.1985 5.8125 22.6875 7.32354 22.6875 9.1875V21C22.6875 22.864 24.1985 24.375 26.0625 24.375H32.8125C34.6765 24.375 36.1875 22.864 36.1875 21V9.1875C36.1875 7.32354 34.6765 5.8125 32.8125 5.8125Z" fill="url(#paint0_linear_2_1982)"/>
<defs>
<linearGradient id="paint0_linear_2_1982" x1="21.0129" y1="41.25" x2="21.0129" y2="0.75" gradientUnits="userSpaceOnUse">
<stop stop-color="#0052CC"/>
<stop offset="0.51698" stop-color="#217EF8"/>
<stop offset="1" stop-color="#2684FF"/>
</linearGradient>
</defs>
</svg>
