<svg width="44" height="44" viewBox="0 0 44 44" fill="none" xmlns="http://www.w3.org/2000/svg">
<path d="M36.2628 15.5174L27.1878 24.5924C26.5002 25.2798 25.5678 25.6659 24.5955 25.6659C23.6232 25.6659 22.6908 25.2798 22.0032 24.5924L11.632 34.9635C11.9757 35.3073 12.1688 35.7736 12.1688 36.2597C12.1688 36.7458 11.9757 37.2121 11.632 37.5559L9.04151 40.15C8.69771 40.4937 8.23148 40.6868 7.74535 40.6868C7.25921 40.6868 6.79298 40.4937 6.44918 40.15L3.85318 37.5559C3.50948 37.2121 3.31641 36.7458 3.31641 36.2597C3.31641 35.7736 3.50948 35.3073 3.85318 34.9635L6.44551 32.3712C6.78932 32.0275 7.25555 31.8344 7.74168 31.8344C8.22782 31.8344 8.69405 32.0275 9.03785 32.3712L19.4108 22C18.7235 21.3124 18.3373 20.38 18.3373 19.4077C18.3373 18.4354 18.7235 17.503 19.4108 16.8154L28.4858 7.74037L36.2628 15.5174ZM38.8552 12.925L31.0782 5.14804L32.3743 3.85187C33.0619 3.16448 33.9944 2.77832 34.9667 2.77832C35.9389 2.77832 36.8714 3.16448 37.559 3.85187L40.1532 6.4442C40.8406 7.13181 41.2267 8.06427 41.2267 9.03654C41.2267 10.0088 40.8406 10.9413 40.1532 11.6289L38.857 12.925H38.8552Z" fill="#FFDA58"/>
</svg>
